Patient4_TMGait_0pt3_01_left_30_GRF.mot
version=1
nRows=39
nColumns=19
inDegrees=no
endheader
time	F1x	F1y	F1z	M1x	M1y	M1z	F2x	F2y	F2z	M2x	M2y	M2z	EC1x	EC1y	EC1z	EC2x	EC2y	EC2z
56.73	-1.1639	-2.5731	0.49256	-0.36982	0.35571	-2.8726	-10.9286	750.2033	-50.5747	275.8301	54.0074	705.4518	-0.0592	0.0182	-0.0073	-0.0462	0.0165	0.9585
56.75	-0.84471	-1.5456	0.31964	-0.33828	0.23477	-1.6764	-12.9719	763.4664	-49.7828	279.7809	54.3214	716.7048	-0.0592	0.0182	-0.0073	-0.0462	0.0165	0.9585
56.77	-0.5751	-0.65151	0.17638	-0.30942	0.1171	-0.63718	-14.7937	781.275	-49.5878	285.3518	54.9592	731.5906	-0.0592	0.0182	-0.0073	-0.0462	0.0165	0.9585
56.79	-0.37033	0.051351	0.068121	-0.28781	0.017615	0.17425	-16.1173	803.0861	-49.9634	292.4436	55.7772	749.4999	-0.0592	0.0182	-0.0073	-0.0462	0.0165	0.9585
56.81	-0.23364	0.55469	-0.0057155	-0.27501	-0.061168	0.74754	-16.7604	827.6722	-50.6639	300.7171	56.4939	769.2517	-0.0592	0.0182	-0.0073	-0.0462	0.0165	0.9585
56.83	-0.15949	0.87743	-0.049602	-0.26814	-0.1209	1.108	-16.6349	853.1151	-51.3376	309.5627	56.7766	789.1028	-0.0592	0.0182	-0.0073	-0.0462	0.0165	0.9585
56.85	-0.13853	1.0465	-0.066636	-0.26108	-0.16765	1.2884	-15.7588	876.87	-51.6583	318.0938	56.3549	806.8213	-0.0592	0.0182	-0.0073	-0.0462	0.0165	0.9585
56.87	-0.16222	1.0742	-0.061065	-0.24139	-0.20864	1.3115	-14.2614	895.9896	-51.4206	325.2131	55.1065	819.8993	-0.0592	0.0182	-0.0073	-0.0462	0.0165	0.9585
56.89	-0.22344	0.95012	-0.039568	-0.19023	-0.25015	1.1758	-12.3473	907.6185	-50.5594	329.8021	53.0611	825.9746	-0.0592	0.0182	-0.0073	-0.0462	0.0165	0.9585
56.91	-0.31559	0.64127	-0.0074796	-0.085332	-0.29782	0.8543	-10.2082	909.6315	-49.1251	330.9806	50.3475	823.3548	-0.0592	0.0182	-0.0073	-0.0462	0.0165	0.9585
56.93	-0.42905	0.10144	0.029668	0.097382	-0.35328	0.30261	-7.9403	901.1054	-47.2504	328.3083	47.1337	811.3915	-0.0592	0.0182	-0.0073	-0.0462	0.0165	0.9585
56.95	-0.54867	-0.71331	0.062976	0.38095	-0.40914	-0.52893	-5.5366	882.5087	-45.1252	321.8752	43.6056	790.6167	-0.0592	0.0182	-0.0073	-0.0462	0.0165	0.9585
56.97	-0.65382	-1.8257	0.08113	0.78035	-0.44754	-1.6721	-2.9356	855.6187	-42.9605	312.2837	39.9539	762.6704	-0.0592	0.0182	-0.0073	-0.0462	0.0165	0.9585
56.99	-0.71224	-3.2097	0.07171	1.2899	-0.44293	-3.1064	-0.073483	823.2084	-40.9461	300.5373	36.3524	730.0182	-0.0592	0.0182	-0.0073	-0.0462	0.0165	0.9585
57.01	-0.6721	-4.7529	0.023484	1.8679	-0.36387	-4.7213	3.0965	788.6084	-39.2077	287.8766	32.9229	695.5603	-0.0592	0.0182	-0.0073	-0.0462	0.0165	0.9585
57.03	-0.46254	-6.2041	-0.070588	2.4169	-0.17659	-6.2633	6.5978	755.2241	-37.7899	275.5927	29.7189	662.2168	-0.0592	0.0182	-0.0073	-0.0462	0.0165	0.9585
57.05	0.0026861	-7.1207	-0.20848	2.7627	0.14985	-7.2799	10.4167	726.0454	-36.6647	264.8344	26.7347	632.5209	-0.0592	0.0182	-0.0073	-0.0462	0.0165	0.9585
57.07	0.81522	-6.8198	-0.37948	2.6375	0.6401	-7.0757	14.4946	703.2217	-35.7624	256.4369	23.9359	608.2767	-0.0592	0.0182	-0.0073	-0.0462	0.0165	0.9585
57.09	2.0527	-4.3479	-0.56356	1.6698	1.3033	-4.6794	18.7162	687.765	-35.0107	250.8019	21.297	590.3308	-0.0592	0.0182	-0.0073	-0.0462	0.0165	0.9585
57.11	3.7512	1.5075	-0.72142	-0.61181	2.1147	1.1508	22.9013	679.3863	-34.3666	247.8289	18.8332	578.4526	-0.0592	0.0182	-0.0073	-0.0462	0.0165	0.9585
57.13	5.8626	12.1205	-0.78801	-4.7409	2.9938	11.8223	26.8121	676.5272	-33.8235	246.9273	16.6088	571.3854	-0.0592	0.0182	-0.0073	-0.0462	0.0165	0.9585
57.15	8.1937	28.8059	-0.67013	-11.2219	3.7721	28.6889	30.1682	676.6594	-33.3841	247.1329	14.7153	567.1054	-0.0592	0.0182	-0.0073	-0.0462	0.0165	0.9585
57.17	10.3178	52.431	-0.2475	-20.3787	4.1599	52.6623	32.6794	676.7673	-33.025	247.2948	13.2302	563.2216	-0.0592	0.0182	-0.0073	-0.0462	0.0165	0.9585
57.19	11.4251	82.9311	0.62916	-32.1667	3.6887	83.7176	34.0908	673.8505	-32.6917	246.2683	12.1975	557.3763	-0.0592	0.0182	-0.0073	-0.0462	0.0165	0.9585
57.21	10.6784	119.046	2.1461	-46.0746	1.8487	120.6323	34.2519	665.4328	-32.3279	243.1127	11.6257	547.6285	-0.0592	0.0182	-0.0073	-0.0462	0.0165	0.9585
57.23	8.0017	158.6174	4.499	-61.2419	-1.5872	161.2288	33.1733	650.0431	-31.8803	237.2789	11.4712	532.8151	-0.0592	0.0182	-0.0073	-0.0462	0.0165	0.9585
57.25	3.9155	198.9665	7.7179	-76.6337	-6.4504	202.6926	31.0468	627.4241	-31.2897	228.6898	11.627	512.6963	-0.0592	0.0182	-0.0073	-0.0462	0.0165	0.9585
57.27	-0.8497	238.1039	11.4275	-91.5176	-12.0661	242.8676	28.2233	598.4757	-30.5077	217.713	11.9395	487.9101	-0.0592	0.0182	-0.0073	-0.0462	0.0165	0.9585
57.29	-5.703	275.4349	15.144	-105.7044	-17.7056	281.0401	25.1276	564.858	-29.5134	205.0056	12.2434	459.6714	-0.0592	0.0182	-0.0073	-0.0462	0.0165	0.9585
57.31	-10.1887	311.0777	18.5142	-119.2675	-22.8413	317.2523	22.1083	528.3794	-28.2964	191.2807	12.4004	429.3205	-0.0592	0.0182	-0.0073	-0.0462	0.0165	0.9585
57.33	-13.9359	345.0341	21.3258	-132.2169	-27.1329	351.4691	19.3289	490.5869	-26.8482	177.1452	12.3364	398.0269	-0.0592	0.0182	-0.0073	-0.0462	0.0165	0.9585
57.35	-16.6876	376.9517	23.5268	-144.4058	-30.4476	383.3415	16.7994	452.6921	-25.2008	163.0626	12.0611	366.7295	-0.0592	0.0182	-0.0073	-0.0462	0.0165	0.9585
57.37	-18.3613	406.2728	25.1948	-155.594	-32.8437	412.3537	14.4706	415.677	-23.443	149.3917	11.6477	336.206	-0.0592	0.0182	-0.0073	-0.0462	0.0165	0.9585
57.39	-19.0656	432.5382	26.4485	-165.5764	-34.483	438.1147	12.3118	380.4211	-21.6765	136.441	11.1763	307.153	-0.0592	0.0182	-0.0073	-0.0462	0.0165	0.9585
57.41	-19.0158	455.6277	27.376	-174.2839	-35.5301	460.5744	10.3536	347.7491	-19.9618	124.4951	10.6786	280.2172	-0.0592	0.0182	-0.0073	-0.0462	0.0165	0.9585
57.43	-18.4363	475.7172	28.0094	-181.7703	-36.0926	479.9639	8.6811	318.3824	-18.3133	113.8015	10.1353	255.9626	-0.0592	0.0182	-0.0073	-0.0462	0.0165	0.9585
57.45	-17.53	493.0169	28.3588	-188.1143	-36.2463	496.5413	7.3852	292.8661	-16.7368	104.5446	9.5196	234.8106	-0.0592	0.0182	-0.0073	-0.0462	0.0165	0.9585
57.47	-16.4482	507.5885	28.4507	-193.3462	-36.0682	510.4133	6.5218	271.5329	-15.2588	96.8323	8.8315	217.0177	-0.0592	0.0182	-0.0073	-0.0462	0.0165	0.9585
57.49	-15.2786	519.3493	28.307	-197.4468	-35.6115	521.5386	6.0935	254.4597	-13.9326	90.68	8.1083	202.6407	-0.0592	0.0182	-0.0073	-0.0462	0.0165	0.9585
